<svg xmlns="http://www.w3.org/2000/svg" version="1.1" xmlns:xlink="http://www.w3.org/1999/xlink" xmlns:svgjs="http://svgjs.dev/svgjs" width="2000" height="1247" viewBox="0 0 2000 1247"><g transform="matrix(1,0,0,1,-1.2121212121212466,0.5048582995952984)"><svg viewBox="0 0 396 247" data-background-color="#000000" preserveAspectRatio="xMidYMid meet" height="1247" width="2000" xmlns="http://www.w3.org/2000/svg" xmlns:xlink="http://www.w3.org/1999/xlink"><g id="tight-bounds" transform="matrix(1,0,0,1,0.2400000000000091,-0.09999999999999432)"><svg viewBox="0 0 395.52 247.2" height="247.2" width="395.52"><rect width="395.52" height="247.20000000000005" fill="url(#efb3ce79-e513-4d89-aa78-9534530ab679)" mask="url(#85cf19f5-5c60-4f1d-92f6-93481c8c5f66)" data-fill-palette-color="tertiary"></rect><g><svg></svg></g><g><svg viewBox="0 0 395.52 247.2" height="247.2" width="395.52"><g transform="matrix(1,0,0,1,75.54432,90.54111261361503)"><svg viewBox="0 0 244.43135999999998 66.11777477276993" height="66.11777477276993" width="244.43135999999998"><g><svg viewBox="0 0 244.43135999999998 66.11777477276993" height="66.11777477276993" width="244.43135999999998"><g><svg viewBox="0 0 244.43135999999998 66.11777477276993" height="66.11777477276993" width="244.43135999999998"><g><svg viewBox="0 0 244.43135999999998 66.11777477276993" height="66.11777477276993" width="244.43135999999998"><g id="textblocktransform"><svg viewBox="0 0 244.43135999999998 66.11777477276993" height="66.11777477276993" width="244.43135999999998" id="textblock"><g><svg viewBox="0 0 244.43135999999998 40.617068409877135" height="40.617068409877135" width="244.43135999999998"><g transform="matrix(1,0,0,1,0,0)"><svg width="244.43135999999998" viewBox="4.88 -34.18 209.55 34.83" height="40.617068409877135" data-palette-color="#6ee2f5"><path d="M9.63 0L4.88 0 4.88-34.18 9.63-34.18 9.63 0ZM28.02 0.65L28.02 0.65Q24.92 0.65 22.42-0.95 19.92-2.55 18.46-5.4 17-8.25 17-12L17-12Q17-15.98 18.45-18.81 19.9-21.65 22.4-23.18 24.9-24.7 28.02-24.7L28.02-24.7Q30.82-24.7 32.82-23.56 34.82-22.43 36.05-20.51 37.27-18.6 37.73-16.18 38.2-13.75 37.9-11.18L37.9-11.18 20.8-11.18 20.8-13.93 34.65-13.93 33.5-13.18Q33.57-14.53 33.36-15.88 33.15-17.23 32.55-18.36 31.95-19.5 30.86-20.19 29.77-20.88 28.1-20.88L28.1-20.88Q26-20.88 24.59-19.83 23.17-18.78 22.45-17.01 21.72-15.25 21.72-13.15L21.72-13.15 21.72-11.23Q21.72-8.9 22.42-7.1 23.12-5.3 24.51-4.26 25.9-3.23 28.02-3.23L28.02-3.23Q30.1-3.23 31.46-4.2 32.82-5.18 33.15-7.13L33.15-7.13 38-7.13Q37.62-4.78 36.27-3.03 34.92-1.28 32.81-0.31 30.7 0.65 28.02 0.65ZM64.65 0L60.5 0 59.9-5.53 59.9-15.55Q59.9-18.5 58.67-19.84 57.45-21.18 54.8-21.18L54.8-21.18Q53.3-21.18 52.13-20.74 50.97-20.3 50.31-19.43 49.65-18.55 49.65-17.23L49.65-17.23 44.4-17.23Q44.4-19.88 45.7-21.53 47-23.18 49.33-23.94 51.67-24.7 54.8-24.7L54.8-24.7Q57.72-24.7 59.95-23.74 62.17-22.78 63.41-20.73 64.65-18.68 64.65-15.43L64.65-15.43 64.65 0ZM52.45 0.65L52.45 0.65Q49.42 0.65 47.42-0.41 45.42-1.48 44.43-3.2 43.45-4.93 43.45-6.88L43.45-6.88Q43.45-9.25 44.66-10.79 45.87-12.33 48.02-13.08 50.17-13.83 52.97-13.83L52.97-13.83Q54.9-13.83 56.72-13.48 58.55-13.13 60.32-12.55L60.32-12.55 60.32-9.68Q58.87-10.2 57.11-10.51 55.34-10.83 53.82-10.83L53.82-10.83Q51.55-10.83 50.02-9.93 48.5-9.03 48.5-6.88L48.5-6.88Q48.5-5.3 49.7-4.16 50.9-3.03 53.5-3.03L53.5-3.03Q55.4-3.03 56.84-3.89 58.3-4.75 59.09-6.05 59.9-7.35 59.9-8.65L59.9-8.65 61.05-8.65Q61.05-6.15 60.03-4.04 59.02-1.93 57.09-0.64 55.17 0.65 52.45 0.65ZM94.62 0.65L94.62 0.65Q91.67 0.65 89.12-0.93 86.57-2.5 85.02-5.35 83.47-8.2 83.47-12.05L83.47-12.05Q83.47-16.1 85.02-18.91 86.57-21.73 89.12-23.21 91.67-24.7 94.62-24.7L94.62-24.7Q96.79-24.7 98.49-24.01 100.19-23.33 101.42-22.16 102.64-21 103.4-19.55 104.17-18.1 104.47-16.55L104.47-16.55 99.64-16.3Q99.12-18.18 97.8-19.31 96.49-20.45 94.57-20.45L94.57-20.45Q92.94-20.45 91.5-19.54 90.07-18.63 89.18-16.76 88.29-14.9 88.29-12.05L88.29-12.05Q88.29-9.4 89.12-7.53 89.94-5.65 91.37-4.65 92.79-3.65 94.57-3.65L94.57-3.65Q97.12-3.65 98.38-4.89 99.64-6.13 99.64-8.3L99.64-8.3 104.47-8.3Q104.47-5.78 103.29-3.75 102.12-1.73 99.9-0.54 97.69 0.65 94.62 0.65ZM120.99 0.65L120.99 0.65Q117.71 0.65 115.13-0.78 112.54-2.2 111.04-5.03 109.54-7.85 109.54-12L109.54-12Q109.54-16.23 111.04-19.04 112.54-21.85 115.13-23.28 117.71-24.7 120.99-24.7L120.99-24.7Q124.21-24.7 126.79-23.28 129.36-21.85 130.85-19.04 132.34-16.23 132.34-12L132.34-12Q132.34-7.85 130.85-5.03 129.36-2.2 126.79-0.78 124.21 0.65 120.99 0.65ZM120.84-3.5L120.84-3.5Q122.91-3.5 124.43-4.5 125.94-5.5 126.75-7.41 127.56-9.33 127.56-12L127.56-12Q127.56-16.1 125.9-18.35 124.24-20.6 121.11-20.6L121.11-20.6Q119.01-20.6 117.5-19.59 115.99-18.57 115.18-16.66 114.36-14.75 114.36-12L114.36-12Q114.36-7.98 116.04-5.74 117.71-3.5 120.84-3.5ZM148.41 0.65L148.41 0.65Q145.46 0.65 142.99-0.94 140.51-2.53 139.05-5.39 137.59-8.25 137.59-12.13L137.59-12.13Q137.59-15.98 139.02-18.8 140.46-21.63 142.84-23.16 145.21-24.7 148.11-24.7L148.11-24.7Q150.76-24.7 152.74-23.41 154.71-22.13 155.8-19.68 156.88-17.23 156.88-13.7L156.88-13.7 155.24-13.7Q155.24-15.88 154.36-17.39 153.49-18.9 152.09-19.68 150.69-20.45 149.09-20.45L149.09-20.45Q147.21-20.45 145.7-19.44 144.19-18.43 143.3-16.56 142.41-14.7 142.41-12.13L142.41-12.13Q142.41-9.53 143.3-7.61 144.19-5.7 145.7-4.67 147.21-3.65 149.06-3.65L149.06-3.65Q150.59-3.65 152-4.46 153.41-5.28 154.32-6.8 155.24-8.33 155.24-10.43L155.24-10.43 156.88-10.43Q156.88-6.83 155.75-4.35 154.61-1.88 152.69-0.61 150.76 0.65 148.41 0.65ZM160.01 0L156.06 0 155.24-5.78 155.24-34.18 160.01-34.18 160.01 0ZM178.38 0.65L178.38 0.65Q175.28 0.65 172.78-0.95 170.28-2.55 168.82-5.4 167.36-8.25 167.36-12L167.36-12Q167.36-15.98 168.81-18.81 170.26-21.65 172.76-23.18 175.26-24.7 178.38-24.7L178.38-24.7Q181.18-24.7 183.18-23.56 185.18-22.43 186.41-20.51 187.63-18.6 188.09-16.18 188.56-13.75 188.26-11.18L188.26-11.18 171.16-11.18 171.16-13.93 185.01-13.93 183.86-13.18Q183.93-14.53 183.72-15.88 183.51-17.23 182.91-18.36 182.31-19.5 181.22-20.19 180.13-20.88 178.46-20.88L178.46-20.88Q176.36-20.88 174.94-19.83 173.53-18.78 172.81-17.01 172.08-15.25 172.08-13.15L172.08-13.15 172.08-11.23Q172.08-8.9 172.78-7.1 173.48-5.3 174.87-4.26 176.26-3.23 178.38-3.23L178.38-3.23Q180.46-3.23 181.82-4.2 183.18-5.18 183.51-7.13L183.51-7.13 188.36-7.13Q187.98-4.78 186.63-3.03 185.28-1.28 183.17-0.31 181.06 0.65 178.38 0.65ZM204.58 0.65L204.58 0.65Q201.08 0.65 198.68-0.34 196.28-1.33 195.02-3.09 193.75-4.85 193.71-7.23L193.71-7.23 198.18-7.23Q198.28-5.15 199.84-4.15 201.41-3.15 204.08-3.15L204.08-3.15Q205.5-3.15 206.67-3.6 207.83-4.05 208.52-4.83 209.21-5.6 209.21-6.58L209.21-6.58Q209.21-7.8 208.31-8.51 207.41-9.22 205.41-9.78L205.41-9.78 200.48-11.45Q197.53-12.45 195.96-14.11 194.38-15.78 194.38-18.1L194.38-18.1Q194.38-21.08 197.03-22.89 199.68-24.7 204.06-24.7L204.06-24.7Q208.58-24.7 211.04-22.79 213.5-20.88 213.61-18L213.61-18 209.03-18Q208.85-19.43 207.62-20.19 206.38-20.95 204.06-20.95L204.06-20.95Q201.88-20.95 200.64-20 199.41-19.05 199.41-17.85L199.41-17.85Q199.41-15.7 203.1-14.65L203.1-14.65 208.28-12.83Q211.23-11.88 212.83-10.38 214.43-8.88 214.43-6.58L214.43-6.58Q214.43-4.73 213.21-3.08 211.98-1.43 209.77-0.39 207.56 0.65 204.58 0.65Z" opacity="1" transform="matrix(1,0,0,1,0,0)" fill="#6ee2f5" class="wordmark-text-0" data-fill-palette-color="primary" id="text-0"></path></svg></g></svg></g><g transform="matrix(1,0,0,1,0,50.20578345180729)"><svg viewBox="0 0 143.50565145599998 15.91199132096265" height="15.91199132096265" width="143.50565145599998"><g transform="matrix(1,0,0,1,0,0)"><svg width="143.50565145599998" viewBox="1.75 -35.85 433.75 48.1" height="15.91199132096265" data-palette-color="#6ee2f5"><path d="M10.55-22.4L16.2-22.4Q16.2-21.8 16.1-21.1 16-20.4 15.7-19.85L15.7-19.85Q14.25-19.85 12.98-19.68 11.7-19.5 10.55-19.15L10.55-19.15 10.55-22.4ZM5.7-10.4L5.7-24.3Q5.7-28.1 7.23-30.65 8.75-33.2 11.23-34.45 13.7-35.7 16.45-35.7L16.45-35.7Q18.45-35.7 19.63-35.33 20.8-34.95 21.65-34.4L21.65-34.4Q21.55-32.9 21.5-31.33 21.45-29.75 21.45-28.4L21.45-28.4Q20.75-28.15 19.83-28.05 18.9-27.95 18.1-27.95L18.1-27.95Q18.1-30.1 17.25-31.45 16.4-32.8 14.45-32.8L14.45-32.8Q13.2-32.8 12.43-32.02 11.65-31.25 11.3-29.73 10.95-28.2 10.95-25.9L10.95-25.9 10.95-10.4 5.7-10.4ZM2.45-22.4L6.55-22.4 6.55-19.2Q5.25-19.6 3.95-19.75 2.65-19.9 1.75-19.9L1.75-19.9Q1.75-20.6 1.9-21.23 2.05-21.85 2.45-22.4L2.45-22.4ZM10.95-11.35L10.95-7.75Q10.95-5.6 11.43-4.45 11.9-3.3 12.93-2.85 13.95-2.4 15.55-2.25L15.55-2.25Q15.75-1.8 15.8-1.2 15.85-0.6 15.85 0.15L15.85 0.15Q15.05 0.1 13.95 0.08 12.85 0.05 11.63 0.03 10.4 0 9.15 0L9.15 0Q7.25 0 5.18 0.03 3.1 0.05 2 0.15L2 0.15Q2-0.65 2.05-1.25 2.1-1.85 2.25-2.25L2.25-2.25Q3.6-2.35 4.35-2.75 5.1-3.15 5.4-4.1 5.7-5.05 5.7-6.8L5.7-6.8 5.7-11.35 10.95-11.35ZM29.2 0.2L29.2 0.2Q25.75 0.2 23.82-1.75 21.9-3.7 21.9-8.75L21.9-8.75 21.9-15.8Q21.9-17.7 21.4-18.57 20.9-19.45 18.65-19.5L18.65-19.5Q18.65-20.1 18.72-20.63 18.8-21.15 19.05-21.65L19.05-21.65Q20.9-21.75 22.87-22.25 24.85-22.75 26-23.35L26-23.35Q26.5-23.15 26.85-22.65 27.2-22.15 27.2-21L27.2-21 27.2-9.9Q27.2-6.55 28.05-4.85 28.9-3.15 31.05-3.15L31.05-3.15Q33.4-3.15 35-5.2 36.6-7.25 36.6-11.55L36.6-11.55 36.6-16.05Q36.6-17.95 35.97-18.82 35.35-19.7 32.9-19.75L32.9-19.75Q32.9-20.35 32.95-20.88 33-21.4 33.3-21.9L33.3-21.9Q35.5-22 37.52-22.43 39.55-22.85 40.7-23.35L40.7-23.35Q41.2-23.15 41.55-22.65 41.9-22.15 41.9-21L41.9-21 41.9-6.65 37.3-4.8Q37.05-4.1 36.6-3.45 36.15-2.8 35.55-2.25L35.55-2.25Q34.3-1.05 32.8-0.43 31.3 0.2 29.2 0.2ZM38.4 0.45L38.4 0.45Q37.8 0.2 37.42-0.33 37.05-0.85 37.05-2.45L37.05-2.45Q37.05-3.05 37.15-4.08 37.25-5.1 37.55-6.7L37.55-6.7 41.9-7.25Q41.9-6 42.1-5.2 42.3-4.4 42.95-4.05 43.6-3.7 44.95-3.7L44.95-3.7Q44.95-3.1 44.9-2.4 44.85-1.7 44.6-1.1L44.6-1.1Q43.2-1.05 41.45-0.65 39.7-0.25 38.4 0.45ZM48.45 0.15L48.45 0.15Q48.45-0.45 48.5-1.1 48.55-1.75 48.7-2.25L48.7-2.25Q50.7-2.3 51.42-3.2 52.15-4.1 52.15-6.6L52.15-6.6 52.15-28.55Q52.15-29.7 51.9-30.45 51.65-31.2 50.85-31.6 50.05-32 48.4-32L48.4-32Q48.4-32.6 48.5-33.15 48.6-33.7 48.85-34.15L48.85-34.15Q49.9-34.15 51.4-34.4 52.9-34.65 54.22-35.05 55.55-35.45 56.2-35.85L56.2-35.85Q56.7-35.65 57.05-35.15 57.4-34.65 57.4-33.65L57.4-33.65 57.4-6.6Q57.4-4.1 58.07-3.2 58.75-2.3 60.4-2.25L60.4-2.25Q60.55-1.75 60.62-1.05 60.7-0.35 60.7 0.15L60.7 0.15Q59.85 0.1 58.85 0.08 57.85 0.05 56.75 0.03 55.65 0 54.6 0L54.6 0Q53.55 0 52.4 0.03 51.25 0.05 50.25 0.08 49.25 0.1 48.45 0.15ZM63.99 0.15L63.99 0.15Q63.99-0.45 64.04-1.1 64.09-1.75 64.24-2.25L64.24-2.25Q66.24-2.3 66.97-3.2 67.69-4.1 67.69-6.6L67.69-6.6 67.69-28.55Q67.69-29.7 67.44-30.45 67.19-31.2 66.39-31.6 65.59-32 63.94-32L63.94-32Q63.94-32.6 64.04-33.15 64.14-33.7 64.39-34.15L64.39-34.15Q65.44-34.15 66.94-34.4 68.44-34.65 69.77-35.05 71.09-35.45 71.74-35.85L71.74-35.85Q72.24-35.65 72.59-35.15 72.94-34.65 72.94-33.65L72.94-33.65 72.94-6.6Q72.94-4.1 73.62-3.2 74.29-2.3 75.94-2.25L75.94-2.25Q76.09-1.75 76.17-1.05 76.24-0.35 76.24 0.15L76.24 0.15Q75.39 0.1 74.39 0.08 73.39 0.05 72.29 0.03 71.19 0 70.14 0L70.14 0Q69.09 0 67.94 0.03 66.79 0.05 65.79 0.08 64.79 0.1 63.99 0.15ZM106.09-21.65L106.09-21.65Q106.04-20.4 106.04-19.05 106.04-17.7 106.24-16.4L106.24-16.4Q105.69-16.1 104.91-15.93 104.14-15.75 103.34-15.75L103.34-15.75Q103.24-17.1 102.56-18.3 101.89-19.5 100.74-20.25 99.59-21 97.99-21L97.99-21Q96.54-21 95.69-20.3 94.84-19.6 94.84-18.45L94.84-18.45Q94.84-17.65 95.19-17.03 95.54-16.4 96.79-15.68 98.04-14.95 100.64-13.9L100.64-13.9Q103.39-12.9 104.94-11.88 106.49-10.85 107.16-9.63 107.84-8.4 107.84-6.6L107.84-6.6Q107.84-4.5 106.61-2.9 105.39-1.3 103.21-0.43 101.04 0.45 98.29 0.45L98.29 0.45Q95.24 0.45 93.41-0.03 91.59-0.5 89.79-1.35L89.79-1.35Q89.94-2.2 89.96-3.35 89.99-4.5 89.99-5.63 89.99-6.75 89.89-7.55L89.89-7.55Q90.34-7.9 91.19-8.05 92.04-8.2 92.84-8.2L92.84-8.2Q93.24-5.15 94.71-3.65 96.19-2.15 98.64-2.15L98.64-2.15Q100.49-2.15 101.56-2.98 102.64-3.8 102.64-5.15L102.64-5.15Q102.64-6 102.21-6.65 101.79-7.3 100.69-7.93 99.59-8.55 97.39-9.4L97.39-9.4Q94.79-10.45 93.16-11.4 91.54-12.35 90.79-13.68 90.04-15 90.04-17.05L90.04-17.05Q90.04-18.65 90.84-19.85 91.64-21.05 92.91-21.83 94.19-22.6 95.71-22.98 97.24-23.35 98.64-23.35L98.64-23.35Q101.04-23.35 102.79-22.93 104.54-22.5 106.09-21.65ZM120.39 0.45L120.39 0.45Q117.29 0.45 115.76-1.15 114.24-2.75 114.24-6.4L114.24-6.4 114.24-19.3Q113.49-19.55 112.66-19.73 111.84-19.9 110.64-19.95L110.64-19.95Q110.64-20.65 110.74-21.2 110.84-21.75 111.09-22.4L111.09-22.4 114.24-22.4 114.24-28.85Q115.44-29.1 116.61-29.7 117.79-30.3 118.59-31L118.59-31Q119.14-30.8 119.34-30.35 119.54-29.9 119.54-28.25L119.54-28.25 119.54-22.4 125.94-22.4Q125.94-21.8 125.84-21.15 125.74-20.5 125.49-19.9L125.49-19.9Q123.69-19.9 122.21-19.7 120.74-19.5 119.54-19.25L119.54-19.25 119.54-7.4Q119.54-5.65 119.86-4.58 120.19-3.5 120.81-3 121.44-2.5 122.34-2.5L122.34-2.5Q123.34-2.5 124.11-2.78 124.89-3.05 125.59-3.6L125.59-3.6Q126.24-2.8 126.34-1.7L126.34-1.7Q125.49-0.8 123.79-0.18 122.09 0.45 120.39 0.45ZM145.08 0.45L145.08 0.45Q144.48 0.2 144.13-0.48 143.78-1.15 143.78-2.5L143.78-2.5Q143.78-3 143.86-3.68 143.93-4.35 144.08-4.95L144.08-4.95 144.23-4.95Q144.03-4 143.46-3.05 142.88-2.1 142.03-1.35L142.03-1.35Q141.13-0.6 139.78-0.13 138.43 0.35 136.58 0.35L136.58 0.35Q133.38 0.35 131.66-1.07 129.93-2.5 129.93-5.05L129.93-5.05Q129.93-7 130.86-8.38 131.78-9.75 133.26-10.68 134.73-11.6 136.48-12.15 138.23-12.7 139.96-13.03 141.68-13.35 143.08-13.55L143.08-13.55Q143.08-15.45 143.01-16.55 142.93-17.65 142.71-18.32 142.48-19 142.03-19.5L142.03-19.5Q141.43-20.2 140.68-20.55 139.93-20.9 139.03-20.9L139.03-20.9Q137.43-20.9 136.53-19.93 135.63-18.95 135.23-17.63 134.83-16.3 134.73-15.15L134.73-15.15Q134.03-15.15 133.13-15.25 132.23-15.35 131.68-15.55L131.68-15.55Q131.78-16.85 131.76-18.4 131.73-19.95 131.43-21.15L131.43-21.15Q133.53-22.2 135.93-22.78 138.33-23.35 140.38-23.35L140.38-23.35Q142.53-23.35 143.98-22.8 145.43-22.25 146.23-21.35L146.23-21.35Q147.48-20.15 147.93-18.18 148.38-16.2 148.38-12.8L148.38-12.8 148.38-7.65Q148.38-6.2 148.61-5.35 148.83-4.5 149.48-4.13 150.13-3.75 151.43-3.7L151.43-3.7Q151.48-3.1 151.41-2.4 151.33-1.7 151.08-1.1L151.08-1.1Q149.68-1.05 148.03-0.65 146.38-0.25 145.08 0.45ZM138.28-2.8L138.28-2.8Q139.38-2.8 140.48-3.53 141.58-4.25 142.33-5.73 143.08-7.2 143.08-9.6L143.08-9.6 143.08-11.35Q141.78-11.15 140.43-10.85 139.08-10.55 137.96-10 136.83-9.45 136.16-8.55 135.48-7.65 135.48-6.15L135.48-6.15Q135.48-4.4 136.33-3.6 137.18-2.8 138.28-2.8ZM174.28-3.6L174.28-3.6Q172.93-1.6 170.88-0.58 168.83 0.45 165.98 0.45L165.98 0.45Q163.18 0.45 160.73-0.88 158.28-2.2 156.71-4.83 155.13-7.45 155.13-11.35L155.13-11.35Q155.13-14.35 156.38-17.1 157.63-19.85 160.03-21.6 162.43-23.35 165.88-23.35L165.88-23.35Q168.33-23.35 170.28-22.8 172.23-22.25 173.68-21.15L173.68-21.15Q173.48-19.7 173.38-18.28 173.28-16.85 173.28-15.3L173.28-15.3Q172.78-15.05 171.98-14.95 171.18-14.85 170.53-14.85L170.53-14.85Q170.28-17.75 168.98-19.28 167.68-20.8 165.58-20.8L165.58-20.8Q163.28-20.8 161.91-18.53 160.53-16.25 160.53-12.1L160.53-12.1Q160.53-9.7 161.33-7.53 162.13-5.35 163.71-4 165.28-2.65 167.58-2.65L167.58-2.65Q169.18-2.65 170.58-3.35 171.98-4.05 173.03-5.3L173.03-5.3Q173.48-5.05 173.81-4.6 174.13-4.15 174.28-3.6ZM177.58 0.15L177.58 0.15Q177.58-0.45 177.63-1.1 177.68-1.75 177.83-2.25L177.83-2.25Q179.83-2.3 180.55-3.2 181.28-4.1 181.28-6.6L181.28-6.6 181.28-28.45Q181.28-29.65 181.03-30.43 180.78-31.2 179.98-31.6 179.18-32 177.53-32L177.53-32Q177.53-32.6 177.63-33.15 177.73-33.7 177.98-34.15L177.98-34.15Q179.03-34.15 180.53-34.4 182.03-34.65 183.35-35.05 184.68-35.45 185.33-35.85L185.33-35.85Q185.83-35.65 186.18-35.15 186.53-34.65 186.53-33.65L186.53-33.65 186.53-6.6Q186.53-4.15 187.18-3.23 187.83-2.3 189.38-2.25L189.38-2.25Q189.53-1.75 189.58-1.05 189.63-0.35 189.63 0.15L189.63 0.15Q188.38 0.05 186.83 0.03 185.28 0 183.68 0L183.68 0Q182.63 0 181.5 0.03 180.38 0.05 179.38 0.08 178.38 0.1 177.58 0.15ZM195.88 0.45L195.88 0.45Q194.78-1.25 192.95-3.6 191.13-5.95 189.08-8.33 187.03-10.7 185.18-12.5L185.18-12.5 185.03-11.5 190.18-16.15Q191.83-17.6 192.48-18.5 193.13-19.4 193.13-19.85L193.13-19.85Q193.13-20.25 192.78-20.45 192.43-20.65 191.73-20.65L191.73-20.65Q191.53-21.25 191.45-21.83 191.38-22.4 191.38-23L191.38-23Q192.38-22.95 193.38-22.93 194.38-22.9 195.33-22.9 196.28-22.9 197.08-22.9L197.08-22.9Q198.03-22.9 199.25-22.93 200.48-22.95 201.78-23L201.78-23Q201.78-22.4 201.7-21.78 201.63-21.15 201.38-20.65L201.38-20.65Q200.38-20.6 199.43-20.3 198.48-20 197.48-19.38 196.48-18.75 195.23-17.6L195.23-17.6 190.08-12.9 189.88-14.75Q191.78-12.85 193.7-10.7 195.63-8.55 198.18-5.4L198.18-5.4Q199.08-4.25 199.78-3.65 200.48-3.05 201.23-2.78 201.98-2.5 203.08-2.4L203.08-2.4Q203.08-1.65 203-1.05 202.93-0.45 202.78 0L202.78 0Q201.53 0 200.38 0.05 199.23 0.1 198.1 0.18 196.98 0.25 195.88 0.45ZM228.77-23.35L228.77-23.35Q230.12-23.35 231.17-23.13 232.22-22.9 233.42-22.5L233.42-22.5 233.42-18.45Q232.42-19.5 231.32-20.18 230.22-20.85 228.57-20.85L228.57-20.85Q227.52-20.85 226.35-20.45 225.17-20.05 224.07-19.03 222.97-18 222.3-16.13 221.62-14.25 221.62-11.25L221.62-11.25Q221.62-8.3 222.47-6.5 223.32-4.7 224.55-3.83 225.77-2.95 226.92-2.95L226.92-2.95Q228.37-2.95 229.7-3.85 231.02-4.75 231.9-6.78 232.77-8.8 232.77-12.2L232.77-12.2 234.37-6.95Q233.67-5.25 233.12-4.33 232.57-3.4 232.22-3L232.22-3Q231.72-2.25 230.75-1.48 229.77-0.7 228.42-0.13 227.07 0.45 225.42 0.45L225.42 0.45Q222.52 0.45 220.4-0.7 218.27-1.85 217.1-4.28 215.92-6.7 215.92-10.5L215.92-10.5Q215.92-14.1 217.52-17 219.12-19.9 222.02-21.63 224.92-23.35 228.77-23.35ZM233.92-6.8L238.02-7.25Q238.02-6 238.22-5.2 238.42-4.4 239.1-4.05 239.77-3.7 241.07-3.7L241.07-3.7Q241.12-3.1 241.05-2.4 240.97-1.7 240.72-1.1L240.72-1.1Q239.32-1.05 237.57-0.65 235.82-0.25 234.52 0.45L234.52 0.45Q233.92 0.2 233.55-0.33 233.17-0.85 233.17-2.45L233.17-2.45Q233.17-3.45 233.37-4.28 233.57-5.1 233.92-6.8L233.92-6.8ZM232.77-28.7L238.02-28.7 238.02-6.4 232.77-6.4 232.77-28.7ZM236.82-35.85L236.82-35.85Q237.32-35.65 237.67-35.15 238.02-34.65 238.02-33.65L238.02-33.65 238.02-26.9 232.77-26.9 232.77-28.45Q232.77-29.65 232.52-30.43 232.27-31.2 231.47-31.6 230.67-32 229.02-32L229.02-32Q229.02-32.6 229.12-33.15 229.22-33.7 229.47-34.15L229.47-34.15Q230.52-34.15 232-34.4 233.47-34.65 234.85-35.05 236.22-35.45 236.82-35.85ZM255.82 0.45L255.82 0.45Q252.07 0.45 249.65-1.15 247.22-2.75 246-5.45 244.77-8.15 244.77-11.4L244.77-11.4Q244.77-14.7 246.07-17.4 247.37-20.1 249.8-21.73 252.22-23.35 255.52-23.35L255.52-23.35Q258.87-23.35 260.92-21.95 262.97-20.55 264-18.2 265.02-15.85 265.17-12.9L265.17-12.9Q264.97-11.75 264.32-11L264.32-11Q263.32-11 261.6-11 259.87-11 257.75-10.98 255.62-10.95 253.4-10.88 251.17-10.8 249.22-10.7L249.22-10.7 249.22-13.45 259.52-13.45Q259.52-16.75 258.4-18.75 257.27-20.75 255.17-20.75L255.17-20.75Q253.97-20.75 252.87-20 251.77-19.25 251.07-17.48 250.37-15.7 250.37-12.55L250.37-12.55Q250.37-10.05 251.02-7.78 251.67-5.5 253.22-4.08 254.77-2.65 257.62-2.65L257.62-2.65Q259.27-2.65 260.9-3.35 262.52-4.05 263.77-5.35L263.77-5.35Q264.17-5.15 264.55-4.6 264.92-4.05 264.97-3.55L264.97-3.55Q263.22-1.4 260.95-0.48 258.67 0.45 255.82 0.45ZM279.27 0.45L279.27 0.45Q278.77-0.65 277.94-2.58 277.12-4.5 276.14-6.75 275.17-9 274.17-11.2 273.17-13.4 272.39-15.08 271.62-16.75 271.27-17.5L271.27-17.5Q270.62-18.8 270.17-19.43 269.72-20.05 269.29-20.3 268.87-20.55 268.17-20.65L268.17-20.65Q267.97-21.3 267.89-21.8 267.82-22.3 267.82-23.05L267.82-23.05Q268.92-23 270.37-22.95 271.82-22.9 273.47-22.9L273.47-22.9Q274.62-22.9 275.82-22.93 277.02-22.95 278.09-22.98 279.17-23 279.97-23.05L279.97-23.05Q279.97-22.45 279.87-21.83 279.77-21.2 279.62-20.7L279.62-20.7Q277.22-20.5 276.79-19.9 276.37-19.3 277.32-17.3L277.32-17.3Q277.72-16.45 278.34-15 278.97-13.55 279.69-11.73 280.42-9.9 281.17-8.03 281.92-6.15 282.52-4.55L282.52-4.55 281.72-4.55Q282.97-7.8 283.99-10.33 285.02-12.85 285.97-15.15L285.97-15.15Q287.17-18.15 286.67-19.33 286.17-20.5 284.32-20.65L284.32-20.65Q284.07-21.2 283.92-21.83 283.77-22.45 283.77-23.05L283.77-23.05Q284.77-23 286.02-22.95 287.27-22.9 288.47-22.9L288.47-22.9Q289.72-22.9 291.02-22.95 292.32-23 293.22-23.05L293.22-23.05Q293.22-22.35 293.12-21.73 293.02-21.1 292.77-20.65L292.77-20.65Q291.97-20.45 291.37-19.95 290.77-19.45 290.19-18.43 289.62-17.4 288.87-15.55L288.87-15.55 282.07-0.05Q281.52 0.2 280.74 0.35 279.97 0.5 279.27 0.45ZM306.92 0.45L306.92 0.45Q303.17 0.45 300.74-1.15 298.32-2.75 297.09-5.45 295.87-8.15 295.87-11.4L295.87-11.4Q295.87-14.7 297.17-17.4 298.47-20.1 300.89-21.73 303.32-23.35 306.62-23.35L306.62-23.35Q309.97-23.35 312.02-21.95 314.07-20.55 315.09-18.2 316.12-15.85 316.27-12.9L316.27-12.9Q316.07-11.75 315.42-11L315.42-11Q314.42-11 312.69-11 310.97-11 308.84-10.98 306.72-10.95 304.49-10.88 302.27-10.8 300.32-10.7L300.32-10.7 300.32-13.45 310.62-13.45Q310.62-16.75 309.49-18.75 308.37-20.75 306.27-20.75L306.27-20.75Q305.07-20.75 303.97-20 302.87-19.25 302.17-17.48 301.47-15.7 301.47-12.55L301.47-12.55Q301.47-10.05 302.12-7.78 302.77-5.5 304.32-4.08 305.87-2.65 308.72-2.65L308.72-2.65Q310.37-2.65 311.99-3.35 313.62-4.05 314.87-5.35L314.87-5.35Q315.27-5.15 315.64-4.6 316.02-4.05 316.07-3.55L316.07-3.55Q314.32-1.4 312.04-0.48 309.77 0.45 306.92 0.45ZM319.91 0.15L319.91 0.15Q319.91-0.45 319.96-1.1 320.01-1.75 320.16-2.25L320.16-2.25Q322.16-2.3 322.89-3.2 323.61-4.1 323.61-6.6L323.61-6.6 323.61-28.55Q323.61-29.7 323.36-30.45 323.11-31.2 322.31-31.6 321.51-32 319.86-32L319.86-32Q319.86-32.6 319.96-33.15 320.06-33.7 320.31-34.15L320.31-34.15Q321.36-34.15 322.86-34.4 324.36-34.65 325.69-35.05 327.01-35.45 327.66-35.85L327.66-35.85Q328.16-35.65 328.51-35.15 328.86-34.65 328.86-33.65L328.86-33.65 328.86-6.6Q328.86-4.1 329.54-3.2 330.21-2.3 331.86-2.25L331.86-2.25Q332.01-1.75 332.09-1.05 332.16-0.35 332.16 0.15L332.16 0.15Q331.31 0.1 330.31 0.08 329.31 0.05 328.21 0.03 327.11 0 326.06 0L326.06 0Q325.01 0 323.86 0.03 322.71 0.05 321.71 0.08 320.71 0.1 319.91 0.15ZM347.31 0.45L347.31 0.45Q343.76 0.45 341.14-1.03 338.51-2.5 337.09-5.15 335.66-7.8 335.66-11.4L335.66-11.4Q335.66-14.9 337.19-17.6 338.71-20.3 341.36-21.83 344.01-23.35 347.36-23.35L347.36-23.35Q351.11-23.35 353.71-21.85 356.31-20.35 357.66-17.7 359.01-15.05 359.01-11.5L359.01-11.5Q359.01-8.05 357.56-5.33 356.11-2.6 353.49-1.07 350.86 0.45 347.31 0.45ZM347.81-2.2L347.81-2.2Q350.61-2.2 351.96-4.58 353.31-6.95 353.31-10.75L353.31-10.75Q353.31-13.85 352.44-16.13 351.56-18.4 350.09-19.58 348.61-20.75 346.86-20.75L346.86-20.75Q344.11-20.75 342.76-18.45 341.41-16.15 341.41-12.55L341.41-12.55Q341.41-9.35 342.19-7 342.96-4.65 344.41-3.43 345.86-2.2 347.81-2.2ZM362.76 12.25L362.76 12.25Q362.76 11.45 362.81 10.85 362.86 10.25 363.06 9.85L363.06 9.85Q364.41 9.75 365.13 9.35 365.86 8.95 366.16 8 366.46 7.05 366.46 5.3L366.46 5.3 366.46-15.8Q366.46-17.1 366.23-17.88 366.01-18.65 365.21-19.05 364.41-19.45 362.76-19.5L362.76-19.5Q362.76-20.1 362.86-20.65 362.96-21.2 363.21-21.65L363.21-21.65Q365.11-21.75 367.26-22.25 369.41-22.75 370.56-23.35L370.56-23.35Q371.06-23.15 371.41-22.65 371.76-22.15 371.76-21L371.76-21Q371.76-20 371.43-19 371.11-18 370.61-16.45L370.61-16.45 371.76-15.45 371.76 4.35Q371.76 6.5 372.21 7.65 372.66 8.8 373.68 9.25 374.71 9.7 376.36 9.85L376.36 9.85Q376.51 10.3 376.58 10.9 376.66 11.5 376.66 12.25L376.66 12.25Q375.86 12.2 374.76 12.18 373.66 12.15 372.41 12.13 371.16 12.1 369.91 12.1L369.91 12.1Q368.01 12.1 365.96 12.13 363.91 12.15 362.76 12.25ZM375.76 0.45L375.76 0.45Q374.41 0.45 373.38 0.23 372.36 0 371.11-0.4L371.11-0.4 371.11-4.45Q372.06-3.4 373.18-2.73 374.31-2.05 375.96-2.05L375.96-2.05Q376.96-2.05 378.13-2.45 379.31-2.85 380.41-3.88 381.51-4.9 382.21-6.78 382.91-8.65 382.91-11.65L382.91-11.65Q382.91-14.1 382.23-15.98 381.56-17.85 380.36-18.9 379.16-19.95 377.56-19.95L377.56-19.95Q376.16-19.95 374.81-19.05 373.46-18.15 372.61-16.13 371.76-14.1 371.76-10.7L371.76-10.7 370.16-15.95Q370.86-17.65 371.38-18.57 371.91-19.5 372.31-19.9L372.31-19.9Q372.76-20.65 373.73-21.45 374.71-22.25 376.08-22.8 377.46-23.35 379.06-23.35L379.06-23.35Q382.01-23.35 384.11-22.23 386.21-21.1 387.38-18.75 388.56-16.4 388.56-12.8L388.56-12.8Q388.56-9 386.96-6 385.36-3 382.48-1.28 379.61 0.45 375.76 0.45ZM403.41 0.45L403.41 0.45Q399.66 0.45 397.23-1.15 394.81-2.75 393.58-5.45 392.36-8.15 392.36-11.4L392.36-11.4Q392.36-14.7 393.66-17.4 394.96-20.1 397.38-21.73 399.81-23.35 403.11-23.35L403.11-23.35Q406.46-23.35 408.51-21.95 410.56-20.55 411.58-18.2 412.61-15.85 412.76-12.9L412.76-12.9Q412.56-11.75 411.91-11L411.91-11Q410.91-11 409.18-11 407.46-11 405.33-10.98 403.21-10.95 400.98-10.88 398.76-10.8 396.81-10.7L396.81-10.7 396.81-13.45 407.11-13.45Q407.11-16.75 405.98-18.75 404.86-20.75 402.76-20.75L402.76-20.75Q401.56-20.75 400.46-20 399.36-19.25 398.66-17.48 397.96-15.7 397.96-12.55L397.96-12.55Q397.96-10.05 398.61-7.78 399.26-5.5 400.81-4.08 402.36-2.65 405.21-2.65L405.21-2.65Q406.86-2.65 408.48-3.35 410.11-4.05 411.36-5.35L411.36-5.35Q411.76-5.15 412.13-4.6 412.51-4.05 412.56-3.55L412.56-3.55Q410.81-1.4 408.53-0.48 406.26 0.45 403.41 0.45ZM425.5-11.35L425.5-7.75Q425.5-5.6 425.95-4.45 426.4-3.3 427.43-2.85 428.45-2.4 430.1-2.25L430.1-2.25Q430.25-1.8 430.33-1.2 430.4-0.6 430.4 0.15L430.4 0.15Q429.6 0.1 428.5 0.08 427.4 0.05 426.15 0.03 424.9 0 423.65 0L423.65 0Q421.75 0 419.7 0.03 417.65 0.05 416.5 0.15L416.5 0.15Q416.5-0.65 416.55-1.25 416.6-1.85 416.8-2.25L416.8-2.25Q418.15-2.35 418.88-2.75 419.6-3.15 419.9-4.1 420.2-5.05 420.2-6.8L420.2-6.8 420.2-11.35 425.5-11.35ZM424.6-15.3L425.5-14.65 425.5-10.6 420.2-10.6 420.2-16.15 425.5-21Q425.5-19.45 425.2-18.1 424.9-16.75 424.6-15.3L424.6-15.3ZM425.5-11.9L424.4-15Q424.9-16.35 425.23-17.32 425.55-18.3 425.9-18.9L425.9-18.9Q427-20.65 428.53-21.8 430.05-22.95 432.05-22.95L432.05-22.95Q433.95-22.95 435.5-21.75L435.5-21.75Q435.4-20.9 435.3-19.78 435.2-18.65 435.18-17.53 435.15-16.4 435.15-15.45L435.15-15.45Q434.6-15.25 433.7-15.1 432.8-14.95 431.9-14.95L431.9-14.95Q431.8-17.2 431.18-17.98 430.55-18.75 429.55-18.75L429.55-18.75Q428.75-18.75 427.78-17.8 426.8-16.85 426.15-15.3 425.5-13.75 425.5-11.9L425.5-11.9ZM425.5-21L420.2-10.6 420.2-15.8Q420.2-17.1 419.98-17.88 419.75-18.65 418.95-19.05 418.15-19.45 416.5-19.5L416.5-19.5Q416.5-20.1 416.6-20.65 416.7-21.2 416.95-21.65L416.95-21.65Q418.85-21.75 421-22.25 423.15-22.75 424.3-23.35L424.3-23.35Q424.8-23.15 425.15-22.65 425.5-22.15 425.5-21L425.5-21Z" opacity="1" transform="matrix(1,0,0,1,0,0)" fill="#6ee2f5" class="slogan-text-1" data-fill-palette-color="secondary" id="text-1"></path></svg></g></svg></g></svg></g></svg></g></svg></g></svg></g></svg></g><g><path d="M245.816 0c68.262 0 123.6 55.338 123.6 123.6 0 68.262-55.338 123.6-123.6 123.6-55.059 0-101.709-36.001-117.696-85.747h1.926c15.919 48.718 61.734 83.915 115.77 83.916 67.251 0 121.769-54.518 121.768-121.769 0-67.251-54.518-121.769-121.768-121.769-54.036 0-99.851 35.197-115.77 83.916l-1.926 0c15.987-49.746 62.637-85.747 117.696-85.747z" fill="url(#efb3ce79-e513-4d89-aa78-9534530ab679)" stroke="transparent" data-fill-palette-color="tertiary"></path></g></svg></g><defs></defs><mask id="85cf19f5-5c60-4f1d-92f6-93481c8c5f66"><g id="SvgjsG2652"><svg viewBox="0 0 395.52 247.2" height="247.2" width="395.52"><g><svg></svg></g><g><svg viewBox="0 0 395.52 247.2" height="247.2" width="395.52"><g transform="matrix(1,0,0,1,75.54432,90.54111261361503)"><svg viewBox="0 0 244.43135999999998 66.11777477276993" height="66.11777477276993" width="244.43135999999998"><g><svg viewBox="0 0 244.43135999999998 66.11777477276993" height="66.11777477276993" width="244.43135999999998"><g><svg viewBox="0 0 244.43135999999998 66.11777477276993" height="66.11777477276993" width="244.43135999999998"><g><svg viewBox="0 0 244.43135999999998 66.11777477276993" height="66.11777477276993" width="244.43135999999998"><g id="SvgjsG2651"><svg viewBox="0 0 244.43135999999998 66.11777477276993" height="66.11777477276993" width="244.43135999999998" id="SvgjsSvg2650"><g><svg viewBox="0 0 244.43135999999998 40.617068409877135" height="40.617068409877135" width="244.43135999999998"><g transform="matrix(1,0,0,1,0,0)"><svg width="244.43135999999998" viewBox="4.88 -34.18 209.55 34.83" height="40.617068409877135" data-palette-color="#6ee2f5"><path d="M9.63 0L4.88 0 4.88-34.18 9.63-34.18 9.63 0ZM28.02 0.65L28.02 0.65Q24.92 0.65 22.42-0.95 19.92-2.55 18.46-5.4 17-8.25 17-12L17-12Q17-15.98 18.45-18.81 19.9-21.65 22.4-23.18 24.9-24.7 28.02-24.7L28.02-24.7Q30.82-24.7 32.82-23.56 34.82-22.43 36.05-20.51 37.27-18.6 37.73-16.18 38.2-13.75 37.9-11.18L37.9-11.18 20.8-11.18 20.8-13.93 34.65-13.93 33.5-13.18Q33.57-14.53 33.36-15.88 33.15-17.23 32.55-18.36 31.95-19.5 30.86-20.19 29.77-20.88 28.1-20.88L28.1-20.88Q26-20.88 24.59-19.83 23.17-18.78 22.45-17.01 21.72-15.25 21.72-13.15L21.72-13.15 21.72-11.23Q21.72-8.9 22.42-7.1 23.12-5.3 24.51-4.26 25.9-3.23 28.02-3.23L28.02-3.23Q30.1-3.23 31.46-4.2 32.82-5.18 33.15-7.13L33.15-7.13 38-7.13Q37.62-4.78 36.27-3.03 34.92-1.28 32.81-0.31 30.7 0.65 28.02 0.65ZM64.65 0L60.5 0 59.9-5.53 59.9-15.55Q59.9-18.5 58.67-19.84 57.45-21.18 54.8-21.18L54.8-21.18Q53.3-21.18 52.13-20.74 50.97-20.3 50.31-19.43 49.65-18.55 49.65-17.23L49.65-17.23 44.4-17.23Q44.4-19.88 45.7-21.53 47-23.18 49.33-23.94 51.67-24.7 54.8-24.7L54.8-24.7Q57.72-24.7 59.95-23.74 62.17-22.78 63.41-20.73 64.65-18.68 64.65-15.43L64.65-15.43 64.65 0ZM52.45 0.65L52.45 0.65Q49.42 0.65 47.42-0.41 45.42-1.48 44.43-3.2 43.45-4.93 43.45-6.88L43.45-6.88Q43.45-9.25 44.66-10.79 45.87-12.33 48.02-13.08 50.17-13.83 52.97-13.83L52.97-13.83Q54.9-13.83 56.72-13.48 58.55-13.13 60.32-12.55L60.32-12.55 60.32-9.68Q58.87-10.2 57.11-10.51 55.34-10.83 53.82-10.83L53.82-10.83Q51.55-10.83 50.02-9.93 48.5-9.03 48.5-6.88L48.5-6.88Q48.5-5.3 49.7-4.16 50.9-3.03 53.5-3.03L53.5-3.03Q55.4-3.03 56.84-3.89 58.3-4.75 59.09-6.05 59.9-7.35 59.9-8.65L59.9-8.65 61.05-8.65Q61.05-6.15 60.03-4.04 59.02-1.93 57.09-0.64 55.17 0.65 52.45 0.65ZM94.62 0.65L94.62 0.65Q91.67 0.65 89.12-0.93 86.57-2.5 85.02-5.35 83.47-8.2 83.47-12.05L83.47-12.05Q83.47-16.1 85.02-18.91 86.57-21.73 89.12-23.21 91.67-24.7 94.62-24.7L94.62-24.7Q96.79-24.7 98.49-24.01 100.19-23.33 101.42-22.16 102.64-21 103.4-19.55 104.17-18.1 104.47-16.55L104.47-16.55 99.64-16.3Q99.12-18.18 97.8-19.31 96.49-20.45 94.57-20.45L94.57-20.45Q92.94-20.45 91.5-19.54 90.07-18.63 89.18-16.76 88.29-14.9 88.29-12.05L88.29-12.05Q88.29-9.4 89.12-7.53 89.94-5.65 91.37-4.65 92.79-3.65 94.57-3.65L94.57-3.65Q97.12-3.65 98.38-4.89 99.64-6.13 99.64-8.3L99.64-8.3 104.47-8.3Q104.47-5.78 103.29-3.75 102.12-1.73 99.9-0.54 97.69 0.65 94.62 0.65ZM120.99 0.65L120.99 0.65Q117.71 0.65 115.13-0.78 112.54-2.2 111.04-5.03 109.54-7.85 109.54-12L109.54-12Q109.54-16.23 111.04-19.04 112.54-21.85 115.13-23.28 117.71-24.7 120.99-24.7L120.99-24.7Q124.21-24.7 126.79-23.28 129.36-21.85 130.85-19.04 132.34-16.23 132.34-12L132.34-12Q132.34-7.85 130.85-5.03 129.36-2.2 126.79-0.78 124.21 0.65 120.99 0.65ZM120.84-3.5L120.84-3.5Q122.91-3.5 124.43-4.5 125.94-5.5 126.75-7.41 127.56-9.33 127.56-12L127.56-12Q127.56-16.1 125.9-18.35 124.24-20.6 121.11-20.6L121.11-20.6Q119.01-20.6 117.5-19.59 115.99-18.57 115.18-16.66 114.36-14.75 114.36-12L114.36-12Q114.36-7.98 116.04-5.74 117.71-3.5 120.84-3.5ZM148.41 0.65L148.41 0.65Q145.46 0.65 142.99-0.94 140.51-2.53 139.05-5.39 137.59-8.25 137.59-12.13L137.59-12.13Q137.59-15.98 139.02-18.8 140.46-21.63 142.84-23.16 145.21-24.7 148.11-24.7L148.11-24.7Q150.76-24.7 152.74-23.41 154.71-22.13 155.8-19.68 156.88-17.23 156.88-13.7L156.88-13.7 155.24-13.7Q155.24-15.88 154.36-17.39 153.49-18.9 152.09-19.68 150.69-20.45 149.09-20.45L149.09-20.45Q147.21-20.45 145.7-19.44 144.19-18.43 143.3-16.56 142.41-14.7 142.41-12.13L142.41-12.13Q142.41-9.53 143.3-7.61 144.19-5.7 145.7-4.67 147.21-3.65 149.06-3.65L149.06-3.65Q150.59-3.65 152-4.46 153.41-5.28 154.32-6.8 155.24-8.33 155.24-10.43L155.24-10.43 156.88-10.43Q156.88-6.83 155.75-4.35 154.61-1.88 152.69-0.61 150.76 0.65 148.41 0.65ZM160.01 0L156.06 0 155.24-5.78 155.24-34.18 160.01-34.18 160.01 0ZM178.38 0.65L178.38 0.65Q175.28 0.65 172.78-0.95 170.28-2.55 168.82-5.4 167.36-8.25 167.36-12L167.36-12Q167.36-15.98 168.81-18.81 170.26-21.65 172.76-23.18 175.26-24.7 178.38-24.7L178.38-24.7Q181.18-24.7 183.18-23.56 185.18-22.43 186.41-20.51 187.63-18.6 188.09-16.18 188.56-13.75 188.26-11.18L188.26-11.18 171.16-11.18 171.16-13.93 185.01-13.93 183.86-13.18Q183.93-14.53 183.72-15.88 183.51-17.23 182.91-18.36 182.31-19.5 181.22-20.19 180.13-20.88 178.46-20.88L178.46-20.88Q176.36-20.88 174.94-19.83 173.53-18.78 172.81-17.01 172.08-15.25 172.08-13.15L172.08-13.15 172.08-11.23Q172.08-8.9 172.78-7.1 173.48-5.3 174.87-4.26 176.26-3.23 178.38-3.23L178.38-3.23Q180.46-3.23 181.82-4.2 183.18-5.18 183.51-7.13L183.51-7.13 188.36-7.13Q187.98-4.78 186.63-3.03 185.28-1.28 183.17-0.31 181.06 0.65 178.38 0.65ZM204.58 0.65L204.58 0.65Q201.08 0.65 198.68-0.34 196.28-1.33 195.02-3.09 193.75-4.85 193.71-7.23L193.71-7.23 198.18-7.23Q198.28-5.15 199.84-4.15 201.41-3.15 204.08-3.15L204.08-3.15Q205.5-3.15 206.67-3.6 207.83-4.05 208.52-4.83 209.21-5.6 209.21-6.58L209.21-6.58Q209.21-7.8 208.31-8.51 207.41-9.22 205.41-9.78L205.41-9.78 200.48-11.45Q197.53-12.45 195.96-14.11 194.38-15.78 194.38-18.1L194.38-18.1Q194.38-21.08 197.03-22.89 199.68-24.7 204.06-24.7L204.06-24.7Q208.58-24.7 211.04-22.79 213.5-20.88 213.61-18L213.61-18 209.03-18Q208.85-19.43 207.62-20.19 206.38-20.95 204.06-20.95L204.06-20.95Q201.88-20.95 200.64-20 199.41-19.05 199.41-17.85L199.41-17.85Q199.41-15.7 203.1-14.65L203.1-14.65 208.28-12.83Q211.23-11.88 212.83-10.38 214.43-8.88 214.43-6.58L214.43-6.58Q214.43-4.73 213.21-3.08 211.98-1.43 209.77-0.39 207.56 0.65 204.58 0.65Z" opacity="1" transform="matrix(1,0,0,1,0,0)" fill="black" class="wordmark-text-0" id="SvgjsPath2649"></path></svg></g></svg></g><g transform="matrix(1,0,0,1,0,50.20578345180729)"><svg viewBox="0 0 143.50565145599998 15.91199132096265" height="15.91199132096265" width="143.50565145599998"><g transform="matrix(1,0,0,1,0,0)"><svg width="143.50565145599998" viewBox="1.75 -35.85 433.75 48.1" height="15.91199132096265" data-palette-color="#6ee2f5"><path d="M10.55-22.4L16.2-22.4Q16.2-21.8 16.1-21.1 16-20.4 15.7-19.85L15.7-19.85Q14.25-19.85 12.98-19.68 11.7-19.5 10.55-19.15L10.55-19.15 10.55-22.4ZM5.7-10.4L5.7-24.3Q5.7-28.1 7.23-30.65 8.75-33.2 11.23-34.45 13.7-35.7 16.45-35.7L16.45-35.7Q18.45-35.7 19.63-35.33 20.8-34.95 21.65-34.4L21.65-34.4Q21.55-32.9 21.5-31.33 21.45-29.75 21.45-28.4L21.45-28.4Q20.75-28.15 19.83-28.05 18.9-27.95 18.1-27.95L18.1-27.95Q18.1-30.1 17.25-31.45 16.4-32.8 14.45-32.8L14.45-32.8Q13.2-32.8 12.43-32.02 11.65-31.25 11.3-29.73 10.95-28.2 10.95-25.9L10.95-25.9 10.95-10.4 5.7-10.4ZM2.45-22.4L6.55-22.4 6.55-19.2Q5.25-19.6 3.95-19.75 2.65-19.9 1.75-19.9L1.75-19.9Q1.75-20.6 1.9-21.23 2.05-21.85 2.45-22.4L2.45-22.4ZM10.95-11.35L10.95-7.75Q10.95-5.6 11.43-4.45 11.9-3.3 12.93-2.85 13.95-2.4 15.55-2.25L15.55-2.25Q15.75-1.8 15.8-1.2 15.85-0.6 15.85 0.15L15.85 0.15Q15.05 0.1 13.95 0.08 12.85 0.05 11.63 0.03 10.4 0 9.15 0L9.15 0Q7.25 0 5.18 0.03 3.1 0.05 2 0.15L2 0.15Q2-0.65 2.05-1.25 2.1-1.85 2.25-2.25L2.25-2.25Q3.6-2.35 4.35-2.75 5.1-3.15 5.4-4.1 5.7-5.05 5.7-6.8L5.7-6.8 5.7-11.35 10.95-11.35ZM29.2 0.2L29.2 0.2Q25.75 0.2 23.82-1.75 21.9-3.7 21.9-8.75L21.9-8.75 21.9-15.8Q21.9-17.7 21.4-18.57 20.9-19.45 18.65-19.5L18.65-19.5Q18.65-20.1 18.72-20.63 18.8-21.15 19.05-21.65L19.05-21.65Q20.9-21.75 22.87-22.25 24.85-22.75 26-23.35L26-23.35Q26.5-23.15 26.85-22.65 27.2-22.15 27.2-21L27.2-21 27.2-9.9Q27.2-6.55 28.05-4.85 28.9-3.15 31.05-3.15L31.05-3.15Q33.4-3.15 35-5.2 36.6-7.25 36.6-11.55L36.6-11.55 36.6-16.05Q36.6-17.95 35.97-18.82 35.35-19.7 32.9-19.75L32.9-19.75Q32.9-20.35 32.95-20.88 33-21.4 33.3-21.9L33.3-21.9Q35.5-22 37.52-22.43 39.55-22.85 40.7-23.35L40.7-23.35Q41.2-23.15 41.55-22.65 41.9-22.15 41.9-21L41.9-21 41.9-6.65 37.3-4.8Q37.05-4.1 36.6-3.45 36.15-2.8 35.55-2.25L35.55-2.25Q34.3-1.05 32.8-0.43 31.3 0.2 29.2 0.2ZM38.4 0.45L38.4 0.45Q37.8 0.2 37.42-0.33 37.05-0.85 37.05-2.45L37.05-2.45Q37.05-3.05 37.15-4.08 37.25-5.1 37.55-6.7L37.55-6.7 41.9-7.25Q41.9-6 42.1-5.2 42.3-4.4 42.95-4.05 43.6-3.7 44.95-3.7L44.95-3.7Q44.95-3.1 44.9-2.4 44.85-1.7 44.6-1.1L44.6-1.1Q43.2-1.05 41.45-0.65 39.7-0.25 38.4 0.45ZM48.45 0.15L48.45 0.15Q48.45-0.45 48.5-1.1 48.55-1.75 48.7-2.25L48.7-2.25Q50.7-2.3 51.42-3.2 52.15-4.1 52.15-6.6L52.15-6.6 52.15-28.55Q52.15-29.7 51.9-30.45 51.65-31.2 50.85-31.6 50.05-32 48.4-32L48.4-32Q48.4-32.6 48.5-33.15 48.6-33.7 48.85-34.15L48.85-34.15Q49.9-34.15 51.4-34.4 52.9-34.65 54.22-35.05 55.55-35.45 56.2-35.85L56.2-35.85Q56.7-35.65 57.05-35.15 57.4-34.65 57.4-33.65L57.4-33.65 57.4-6.6Q57.4-4.1 58.07-3.2 58.75-2.3 60.4-2.25L60.4-2.25Q60.55-1.75 60.62-1.05 60.7-0.35 60.7 0.15L60.7 0.15Q59.85 0.1 58.85 0.08 57.85 0.05 56.75 0.03 55.65 0 54.6 0L54.6 0Q53.55 0 52.4 0.03 51.25 0.05 50.25 0.08 49.25 0.1 48.45 0.15ZM63.99 0.15L63.99 0.15Q63.99-0.45 64.04-1.1 64.09-1.75 64.24-2.25L64.24-2.25Q66.24-2.3 66.97-3.2 67.69-4.1 67.69-6.6L67.69-6.6 67.69-28.55Q67.69-29.7 67.44-30.45 67.19-31.2 66.39-31.6 65.59-32 63.94-32L63.94-32Q63.94-32.6 64.04-33.15 64.14-33.7 64.39-34.15L64.39-34.15Q65.44-34.15 66.94-34.4 68.44-34.65 69.77-35.05 71.09-35.45 71.74-35.85L71.74-35.85Q72.24-35.65 72.59-35.15 72.94-34.65 72.94-33.65L72.94-33.65 72.94-6.6Q72.94-4.1 73.62-3.2 74.29-2.3 75.94-2.25L75.94-2.25Q76.09-1.75 76.17-1.05 76.24-0.35 76.24 0.15L76.24 0.15Q75.39 0.1 74.39 0.08 73.39 0.05 72.29 0.03 71.19 0 70.14 0L70.14 0Q69.09 0 67.94 0.03 66.79 0.05 65.79 0.08 64.79 0.1 63.99 0.15ZM106.09-21.65L106.09-21.65Q106.04-20.4 106.04-19.05 106.04-17.7 106.24-16.4L106.24-16.4Q105.69-16.1 104.91-15.93 104.14-15.75 103.34-15.75L103.34-15.75Q103.24-17.1 102.56-18.3 101.89-19.5 100.74-20.25 99.59-21 97.99-21L97.99-21Q96.54-21 95.69-20.3 94.84-19.6 94.84-18.45L94.84-18.45Q94.84-17.65 95.19-17.03 95.54-16.4 96.79-15.68 98.04-14.95 100.64-13.9L100.64-13.9Q103.39-12.9 104.94-11.88 106.49-10.85 107.16-9.63 107.84-8.4 107.84-6.6L107.84-6.6Q107.84-4.5 106.61-2.9 105.39-1.3 103.21-0.43 101.04 0.45 98.29 0.45L98.29 0.45Q95.24 0.45 93.41-0.03 91.59-0.5 89.79-1.35L89.79-1.35Q89.94-2.2 89.96-3.35 89.99-4.5 89.99-5.63 89.99-6.75 89.89-7.55L89.89-7.55Q90.34-7.9 91.19-8.05 92.04-8.2 92.84-8.2L92.84-8.2Q93.24-5.15 94.71-3.65 96.19-2.15 98.64-2.15L98.64-2.15Q100.49-2.15 101.56-2.98 102.64-3.8 102.64-5.15L102.64-5.15Q102.64-6 102.21-6.65 101.79-7.3 100.69-7.93 99.59-8.55 97.39-9.4L97.39-9.4Q94.79-10.45 93.16-11.4 91.54-12.35 90.79-13.68 90.04-15 90.04-17.05L90.04-17.05Q90.04-18.65 90.84-19.85 91.64-21.05 92.91-21.83 94.19-22.6 95.71-22.98 97.24-23.35 98.64-23.35L98.64-23.35Q101.04-23.35 102.79-22.93 104.54-22.5 106.09-21.65ZM120.39 0.45L120.39 0.45Q117.29 0.45 115.76-1.15 114.24-2.75 114.24-6.4L114.24-6.4 114.24-19.3Q113.49-19.55 112.66-19.73 111.84-19.9 110.64-19.95L110.64-19.95Q110.64-20.65 110.74-21.2 110.84-21.75 111.09-22.4L111.09-22.4 114.24-22.4 114.24-28.85Q115.44-29.1 116.61-29.7 117.79-30.3 118.59-31L118.59-31Q119.14-30.8 119.34-30.35 119.54-29.9 119.54-28.25L119.54-28.25 119.54-22.4 125.94-22.4Q125.94-21.8 125.84-21.15 125.74-20.5 125.49-19.9L125.49-19.9Q123.69-19.9 122.21-19.7 120.74-19.5 119.54-19.25L119.54-19.25 119.54-7.4Q119.54-5.65 119.86-4.58 120.19-3.5 120.81-3 121.44-2.5 122.34-2.5L122.34-2.5Q123.34-2.5 124.11-2.78 124.89-3.05 125.59-3.6L125.59-3.6Q126.24-2.8 126.34-1.7L126.34-1.7Q125.49-0.8 123.79-0.18 122.09 0.45 120.39 0.45ZM145.08 0.45L145.08 0.45Q144.48 0.2 144.13-0.48 143.78-1.15 143.78-2.5L143.78-2.5Q143.78-3 143.86-3.68 143.93-4.35 144.08-4.95L144.08-4.95 144.23-4.95Q144.03-4 143.46-3.05 142.88-2.1 142.03-1.35L142.03-1.35Q141.13-0.6 139.78-0.13 138.43 0.35 136.58 0.35L136.58 0.35Q133.38 0.35 131.66-1.07 129.93-2.5 129.93-5.05L129.93-5.05Q129.93-7 130.86-8.38 131.78-9.75 133.26-10.68 134.73-11.6 136.48-12.15 138.23-12.7 139.96-13.03 141.68-13.35 143.08-13.55L143.08-13.55Q143.08-15.45 143.01-16.55 142.93-17.65 142.71-18.32 142.48-19 142.03-19.5L142.03-19.5Q141.43-20.2 140.68-20.55 139.93-20.9 139.03-20.9L139.03-20.9Q137.43-20.9 136.53-19.93 135.63-18.95 135.23-17.63 134.83-16.3 134.73-15.15L134.73-15.15Q134.03-15.15 133.13-15.25 132.23-15.35 131.68-15.55L131.68-15.55Q131.78-16.85 131.76-18.4 131.73-19.95 131.43-21.15L131.43-21.15Q133.53-22.2 135.93-22.78 138.33-23.35 140.38-23.35L140.38-23.35Q142.53-23.35 143.98-22.8 145.43-22.25 146.23-21.35L146.23-21.35Q147.48-20.15 147.93-18.18 148.38-16.2 148.38-12.8L148.38-12.8 148.38-7.65Q148.38-6.2 148.61-5.35 148.83-4.5 149.48-4.13 150.13-3.75 151.43-3.7L151.43-3.7Q151.48-3.1 151.41-2.4 151.33-1.7 151.08-1.1L151.08-1.1Q149.68-1.05 148.03-0.65 146.38-0.25 145.08 0.45ZM138.28-2.8L138.28-2.8Q139.38-2.8 140.48-3.53 141.58-4.25 142.33-5.73 143.08-7.2 143.08-9.6L143.08-9.6 143.08-11.35Q141.78-11.15 140.43-10.85 139.08-10.55 137.96-10 136.83-9.45 136.16-8.55 135.48-7.65 135.48-6.15L135.48-6.15Q135.48-4.4 136.33-3.6 137.18-2.8 138.28-2.8ZM174.28-3.6L174.28-3.6Q172.93-1.6 170.88-0.58 168.83 0.45 165.98 0.45L165.98 0.45Q163.18 0.45 160.73-0.88 158.28-2.2 156.71-4.83 155.13-7.45 155.13-11.35L155.13-11.35Q155.13-14.35 156.38-17.1 157.63-19.85 160.03-21.6 162.43-23.35 165.88-23.35L165.88-23.35Q168.33-23.35 170.28-22.8 172.23-22.25 173.68-21.15L173.68-21.15Q173.48-19.7 173.38-18.28 173.28-16.85 173.28-15.3L173.28-15.3Q172.78-15.05 171.98-14.95 171.18-14.85 170.53-14.85L170.53-14.85Q170.28-17.75 168.98-19.28 167.68-20.8 165.58-20.8L165.58-20.8Q163.28-20.8 161.91-18.53 160.53-16.25 160.53-12.1L160.53-12.1Q160.53-9.7 161.33-7.53 162.13-5.35 163.71-4 165.28-2.65 167.58-2.65L167.58-2.65Q169.18-2.65 170.58-3.35 171.98-4.05 173.03-5.3L173.03-5.3Q173.48-5.05 173.81-4.6 174.13-4.15 174.28-3.6ZM177.58 0.15L177.58 0.15Q177.58-0.45 177.63-1.1 177.68-1.75 177.83-2.25L177.83-2.25Q179.83-2.3 180.55-3.2 181.28-4.1 181.28-6.6L181.28-6.6 181.28-28.45Q181.28-29.65 181.03-30.43 180.78-31.2 179.98-31.6 179.18-32 177.53-32L177.53-32Q177.53-32.6 177.63-33.15 177.73-33.7 177.98-34.15L177.98-34.15Q179.03-34.15 180.53-34.4 182.03-34.65 183.35-35.05 184.68-35.45 185.33-35.85L185.33-35.85Q185.83-35.65 186.18-35.15 186.53-34.65 186.53-33.65L186.53-33.65 186.53-6.6Q186.53-4.15 187.18-3.23 187.83-2.3 189.38-2.25L189.38-2.25Q189.53-1.75 189.58-1.05 189.63-0.35 189.63 0.15L189.63 0.15Q188.38 0.05 186.83 0.03 185.28 0 183.68 0L183.68 0Q182.63 0 181.5 0.03 180.38 0.05 179.38 0.08 178.38 0.1 177.58 0.15ZM195.88 0.45L195.88 0.45Q194.78-1.25 192.95-3.6 191.13-5.95 189.08-8.33 187.03-10.7 185.18-12.5L185.18-12.5 185.03-11.5 190.18-16.15Q191.83-17.6 192.48-18.5 193.13-19.4 193.13-19.85L193.13-19.85Q193.13-20.25 192.78-20.45 192.43-20.65 191.73-20.65L191.73-20.65Q191.53-21.25 191.45-21.83 191.38-22.4 191.38-23L191.38-23Q192.38-22.95 193.38-22.93 194.38-22.9 195.33-22.9 196.28-22.9 197.08-22.9L197.08-22.9Q198.03-22.9 199.25-22.93 200.48-22.95 201.78-23L201.78-23Q201.78-22.4 201.7-21.78 201.63-21.15 201.38-20.65L201.38-20.65Q200.38-20.6 199.43-20.3 198.48-20 197.48-19.38 196.48-18.75 195.23-17.6L195.23-17.6 190.08-12.9 189.88-14.75Q191.78-12.85 193.7-10.7 195.63-8.55 198.18-5.4L198.18-5.4Q199.08-4.25 199.78-3.65 200.48-3.05 201.23-2.78 201.98-2.5 203.08-2.4L203.08-2.4Q203.08-1.65 203-1.05 202.93-0.45 202.78 0L202.78 0Q201.53 0 200.38 0.05 199.23 0.1 198.1 0.18 196.98 0.25 195.88 0.45ZM228.77-23.35L228.77-23.35Q230.12-23.35 231.17-23.13 232.22-22.9 233.42-22.5L233.42-22.5 233.42-18.45Q232.42-19.5 231.32-20.18 230.22-20.85 228.57-20.85L228.57-20.85Q227.52-20.85 226.35-20.45 225.17-20.05 224.07-19.03 222.97-18 222.3-16.13 221.62-14.25 221.62-11.25L221.62-11.25Q221.62-8.3 222.47-6.5 223.32-4.7 224.55-3.83 225.77-2.95 226.92-2.95L226.92-2.95Q228.37-2.95 229.7-3.85 231.02-4.75 231.9-6.78 232.77-8.8 232.77-12.2L232.77-12.2 234.37-6.95Q233.67-5.25 233.12-4.33 232.57-3.4 232.22-3L232.22-3Q231.72-2.25 230.75-1.48 229.77-0.7 228.42-0.13 227.07 0.45 225.42 0.45L225.42 0.45Q222.52 0.45 220.4-0.7 218.27-1.85 217.1-4.28 215.92-6.7 215.92-10.5L215.92-10.5Q215.92-14.1 217.52-17 219.12-19.9 222.02-21.63 224.92-23.35 228.77-23.35ZM233.92-6.8L238.02-7.25Q238.02-6 238.22-5.2 238.42-4.4 239.1-4.05 239.77-3.7 241.07-3.7L241.07-3.7Q241.12-3.1 241.05-2.4 240.97-1.7 240.72-1.1L240.72-1.1Q239.32-1.05 237.57-0.65 235.82-0.25 234.52 0.45L234.52 0.45Q233.92 0.2 233.55-0.33 233.17-0.85 233.17-2.45L233.17-2.45Q233.17-3.45 233.37-4.28 233.57-5.1 233.92-6.8L233.92-6.8ZM232.77-28.7L238.02-28.7 238.02-6.4 232.77-6.4 232.77-28.7ZM236.82-35.85L236.82-35.85Q237.32-35.65 237.67-35.15 238.02-34.65 238.02-33.65L238.02-33.65 238.02-26.9 232.77-26.9 232.77-28.45Q232.77-29.65 232.52-30.43 232.27-31.2 231.47-31.6 230.67-32 229.02-32L229.02-32Q229.02-32.6 229.12-33.15 229.22-33.7 229.47-34.15L229.47-34.15Q230.52-34.15 232-34.4 233.47-34.65 234.85-35.05 236.22-35.45 236.82-35.85ZM255.82 0.45L255.82 0.45Q252.07 0.45 249.65-1.15 247.22-2.75 246-5.45 244.77-8.15 244.77-11.4L244.77-11.4Q244.77-14.7 246.07-17.4 247.37-20.1 249.8-21.73 252.22-23.35 255.52-23.35L255.52-23.35Q258.87-23.35 260.92-21.95 262.97-20.55 264-18.2 265.02-15.85 265.17-12.9L265.17-12.9Q264.97-11.75 264.32-11L264.32-11Q263.32-11 261.6-11 259.87-11 257.75-10.98 255.62-10.95 253.4-10.88 251.17-10.8 249.22-10.7L249.22-10.7 249.22-13.45 259.52-13.45Q259.52-16.75 258.4-18.75 257.27-20.75 255.17-20.75L255.17-20.75Q253.97-20.75 252.87-20 251.77-19.25 251.07-17.48 250.37-15.7 250.37-12.55L250.37-12.55Q250.37-10.05 251.02-7.78 251.67-5.5 253.22-4.08 254.77-2.65 257.62-2.65L257.62-2.65Q259.27-2.65 260.9-3.35 262.52-4.05 263.77-5.35L263.77-5.35Q264.17-5.15 264.55-4.6 264.92-4.05 264.97-3.55L264.97-3.55Q263.22-1.4 260.95-0.48 258.67 0.45 255.82 0.45ZM279.27 0.45L279.27 0.45Q278.77-0.65 277.94-2.58 277.12-4.5 276.14-6.75 275.17-9 274.17-11.2 273.17-13.4 272.39-15.08 271.62-16.75 271.27-17.5L271.27-17.5Q270.62-18.8 270.17-19.43 269.72-20.05 269.29-20.3 268.87-20.55 268.17-20.65L268.17-20.65Q267.97-21.3 267.89-21.8 267.82-22.3 267.82-23.05L267.82-23.05Q268.92-23 270.37-22.95 271.82-22.9 273.47-22.9L273.47-22.9Q274.62-22.9 275.82-22.93 277.02-22.95 278.09-22.98 279.17-23 279.97-23.05L279.97-23.05Q279.97-22.45 279.87-21.83 279.77-21.2 279.62-20.7L279.62-20.7Q277.22-20.5 276.79-19.9 276.37-19.3 277.32-17.3L277.32-17.3Q277.72-16.45 278.34-15 278.97-13.55 279.69-11.73 280.42-9.9 281.17-8.03 281.92-6.15 282.52-4.55L282.52-4.55 281.72-4.55Q282.97-7.8 283.99-10.33 285.02-12.85 285.97-15.15L285.97-15.15Q287.17-18.15 286.67-19.33 286.17-20.5 284.32-20.65L284.32-20.65Q284.07-21.2 283.92-21.83 283.77-22.45 283.77-23.05L283.77-23.05Q284.77-23 286.02-22.95 287.27-22.9 288.47-22.9L288.47-22.9Q289.72-22.9 291.02-22.95 292.32-23 293.22-23.05L293.22-23.05Q293.22-22.35 293.12-21.73 293.02-21.1 292.77-20.65L292.77-20.65Q291.97-20.45 291.37-19.95 290.77-19.45 290.19-18.43 289.62-17.4 288.87-15.55L288.87-15.55 282.07-0.05Q281.52 0.2 280.74 0.35 279.97 0.5 279.27 0.45ZM306.92 0.45L306.92 0.45Q303.17 0.45 300.74-1.15 298.32-2.75 297.09-5.45 295.87-8.15 295.87-11.4L295.87-11.4Q295.87-14.7 297.17-17.4 298.47-20.1 300.89-21.73 303.32-23.35 306.62-23.35L306.62-23.35Q309.97-23.35 312.02-21.95 314.07-20.55 315.09-18.2 316.12-15.85 316.27-12.9L316.27-12.9Q316.07-11.75 315.42-11L315.42-11Q314.42-11 312.69-11 310.97-11 308.84-10.98 306.72-10.95 304.49-10.88 302.27-10.8 300.32-10.7L300.32-10.7 300.32-13.45 310.62-13.45Q310.62-16.75 309.49-18.75 308.37-20.75 306.27-20.75L306.27-20.75Q305.07-20.75 303.97-20 302.87-19.25 302.17-17.48 301.47-15.7 301.47-12.55L301.47-12.55Q301.47-10.05 302.12-7.78 302.77-5.5 304.32-4.08 305.87-2.65 308.72-2.65L308.72-2.65Q310.37-2.65 311.99-3.35 313.62-4.05 314.87-5.35L314.87-5.35Q315.27-5.15 315.64-4.6 316.02-4.05 316.07-3.55L316.07-3.55Q314.32-1.4 312.04-0.48 309.77 0.45 306.92 0.45ZM319.91 0.15L319.91 0.15Q319.91-0.45 319.96-1.1 320.01-1.75 320.16-2.25L320.16-2.25Q322.16-2.3 322.89-3.2 323.61-4.1 323.61-6.6L323.61-6.6 323.61-28.55Q323.61-29.7 323.36-30.45 323.11-31.2 322.31-31.6 321.51-32 319.86-32L319.86-32Q319.86-32.6 319.96-33.15 320.06-33.7 320.31-34.15L320.31-34.15Q321.36-34.15 322.86-34.4 324.36-34.65 325.69-35.05 327.01-35.45 327.66-35.85L327.66-35.85Q328.16-35.65 328.51-35.15 328.86-34.65 328.86-33.65L328.86-33.65 328.86-6.6Q328.86-4.1 329.54-3.2 330.21-2.3 331.86-2.25L331.86-2.25Q332.01-1.75 332.09-1.05 332.16-0.35 332.16 0.15L332.16 0.15Q331.31 0.1 330.31 0.08 329.31 0.05 328.21 0.03 327.11 0 326.06 0L326.06 0Q325.01 0 323.86 0.03 322.71 0.05 321.71 0.08 320.71 0.1 319.91 0.15ZM347.31 0.45L347.31 0.45Q343.76 0.45 341.14-1.03 338.51-2.5 337.09-5.15 335.66-7.8 335.66-11.4L335.66-11.4Q335.66-14.9 337.19-17.6 338.71-20.3 341.36-21.83 344.01-23.35 347.36-23.35L347.36-23.35Q351.11-23.35 353.71-21.85 356.31-20.35 357.66-17.7 359.01-15.05 359.01-11.5L359.01-11.5Q359.01-8.05 357.56-5.33 356.11-2.6 353.49-1.07 350.86 0.45 347.31 0.45ZM347.81-2.2L347.81-2.2Q350.61-2.2 351.96-4.58 353.31-6.95 353.31-10.75L353.31-10.75Q353.31-13.85 352.44-16.13 351.56-18.4 350.09-19.58 348.61-20.75 346.86-20.75L346.86-20.75Q344.11-20.75 342.76-18.45 341.41-16.15 341.41-12.55L341.41-12.55Q341.41-9.35 342.19-7 342.96-4.65 344.41-3.43 345.86-2.2 347.81-2.2ZM362.76 12.25L362.76 12.25Q362.76 11.45 362.81 10.85 362.86 10.25 363.06 9.85L363.06 9.85Q364.41 9.75 365.13 9.35 365.86 8.95 366.16 8 366.46 7.05 366.46 5.3L366.46 5.3 366.46-15.8Q366.46-17.1 366.23-17.88 366.01-18.65 365.21-19.05 364.41-19.45 362.76-19.5L362.76-19.5Q362.76-20.1 362.86-20.65 362.96-21.2 363.21-21.65L363.21-21.65Q365.11-21.75 367.26-22.25 369.41-22.75 370.56-23.35L370.56-23.35Q371.06-23.15 371.41-22.65 371.76-22.15 371.76-21L371.76-21Q371.76-20 371.43-19 371.11-18 370.61-16.45L370.61-16.45 371.76-15.45 371.76 4.35Q371.76 6.5 372.21 7.65 372.66 8.8 373.68 9.25 374.71 9.7 376.36 9.85L376.36 9.85Q376.51 10.3 376.58 10.9 376.66 11.5 376.66 12.25L376.66 12.25Q375.86 12.2 374.76 12.18 373.66 12.15 372.41 12.13 371.16 12.1 369.91 12.1L369.91 12.1Q368.01 12.1 365.96 12.13 363.91 12.15 362.76 12.25ZM375.76 0.45L375.76 0.45Q374.41 0.45 373.38 0.23 372.36 0 371.11-0.4L371.11-0.4 371.11-4.45Q372.06-3.4 373.18-2.73 374.31-2.05 375.96-2.05L375.96-2.05Q376.96-2.05 378.13-2.45 379.31-2.85 380.41-3.88 381.51-4.9 382.21-6.78 382.91-8.65 382.91-11.65L382.91-11.65Q382.91-14.1 382.23-15.98 381.56-17.85 380.36-18.9 379.16-19.95 377.56-19.95L377.56-19.95Q376.16-19.95 374.81-19.05 373.46-18.15 372.61-16.13 371.76-14.1 371.76-10.7L371.76-10.7 370.16-15.95Q370.86-17.65 371.38-18.57 371.91-19.5 372.31-19.9L372.31-19.9Q372.76-20.65 373.73-21.45 374.71-22.25 376.08-22.8 377.46-23.35 379.06-23.35L379.06-23.35Q382.01-23.35 384.11-22.23 386.21-21.1 387.38-18.75 388.56-16.4 388.56-12.8L388.56-12.8Q388.56-9 386.96-6 385.36-3 382.48-1.28 379.61 0.45 375.76 0.45ZM403.41 0.45L403.41 0.45Q399.66 0.45 397.23-1.15 394.81-2.75 393.58-5.45 392.36-8.15 392.36-11.4L392.36-11.4Q392.36-14.7 393.66-17.4 394.96-20.1 397.38-21.73 399.81-23.35 403.11-23.35L403.11-23.35Q406.46-23.35 408.51-21.95 410.56-20.55 411.58-18.2 412.61-15.85 412.76-12.9L412.76-12.9Q412.56-11.75 411.91-11L411.91-11Q410.91-11 409.18-11 407.46-11 405.33-10.98 403.21-10.95 400.98-10.88 398.76-10.8 396.81-10.7L396.81-10.7 396.81-13.45 407.11-13.45Q407.11-16.75 405.98-18.75 404.86-20.75 402.76-20.75L402.76-20.75Q401.56-20.75 400.46-20 399.36-19.25 398.66-17.48 397.96-15.7 397.96-12.55L397.96-12.55Q397.96-10.05 398.61-7.78 399.26-5.5 400.81-4.08 402.36-2.65 405.21-2.65L405.21-2.65Q406.86-2.65 408.48-3.35 410.11-4.05 411.36-5.35L411.36-5.35Q411.76-5.15 412.13-4.6 412.51-4.05 412.56-3.55L412.56-3.55Q410.81-1.4 408.53-0.48 406.26 0.45 403.41 0.45ZM425.5-11.35L425.5-7.75Q425.5-5.6 425.95-4.45 426.4-3.3 427.43-2.85 428.45-2.4 430.1-2.25L430.1-2.25Q430.25-1.8 430.33-1.2 430.4-0.6 430.4 0.15L430.4 0.15Q429.6 0.1 428.5 0.08 427.4 0.05 426.15 0.03 424.9 0 423.65 0L423.65 0Q421.75 0 419.7 0.03 417.65 0.05 416.5 0.15L416.5 0.15Q416.5-0.65 416.55-1.25 416.6-1.85 416.8-2.25L416.8-2.25Q418.15-2.35 418.88-2.75 419.6-3.15 419.9-4.1 420.2-5.05 420.2-6.8L420.2-6.8 420.2-11.35 425.5-11.35ZM424.6-15.3L425.5-14.65 425.5-10.6 420.2-10.6 420.2-16.15 425.5-21Q425.5-19.45 425.2-18.1 424.9-16.75 424.6-15.3L424.6-15.3ZM425.5-11.9L424.4-15Q424.9-16.35 425.23-17.32 425.55-18.3 425.9-18.9L425.9-18.9Q427-20.65 428.53-21.8 430.05-22.95 432.05-22.95L432.05-22.95Q433.95-22.95 435.5-21.75L435.5-21.75Q435.4-20.9 435.3-19.78 435.2-18.65 435.18-17.53 435.15-16.4 435.15-15.45L435.15-15.45Q434.6-15.25 433.7-15.1 432.8-14.95 431.9-14.95L431.9-14.95Q431.8-17.2 431.18-17.98 430.55-18.75 429.55-18.75L429.55-18.75Q428.75-18.75 427.78-17.8 426.8-16.85 426.15-15.3 425.5-13.75 425.5-11.9L425.5-11.9ZM425.5-21L420.2-10.6 420.2-15.8Q420.2-17.1 419.98-17.88 419.75-18.65 418.95-19.05 418.15-19.45 416.5-19.5L416.5-19.5Q416.5-20.1 416.6-20.65 416.7-21.2 416.95-21.65L416.95-21.65Q418.85-21.75 421-22.25 423.15-22.75 424.3-23.35L424.3-23.35Q424.8-23.15 425.15-22.65 425.5-22.15 425.5-21L425.5-21Z" opacity="1" transform="matrix(1,0,0,1,0,0)" fill="black" class="slogan-text-1" id="SvgjsPath2648"></path></svg></g></svg></g></svg></g></svg></g></svg></g></svg></g></svg></g><g><path d="M245.816 0c68.262 0 123.6 55.338 123.6 123.6 0 68.262-55.338 123.6-123.6 123.6-55.059 0-101.709-36.001-117.696-85.747h1.926c15.919 48.718 61.734 83.915 115.77 83.916 67.251 0 121.769-54.518 121.768-121.769 0-67.251-54.518-121.769-121.768-121.769-54.036 0-99.851 35.197-115.77 83.916l-1.926 0c15.987-49.746 62.637-85.747 117.696-85.747z" fill="white" stroke="transparent"></path></g></svg></g><defs><mask></mask></defs></svg><rect width="395.52" height="247.2" fill="black" stroke="none" visibility="hidden"></rect></g></mask><linearGradient x1="0" x2="1" y1="0.548" y2="0.55" id="efb3ce79-e513-4d89-aa78-9534530ab679"><stop stop-color="#ff6cab" offset="0"></stop><stop stop-color="#7366ff" offset="1"></stop></linearGradient></svg><rect width="395.52" height="247.2" fill="none" stroke="none" visibility="hidden"></rect></g></svg></g></svg>